<?xml version="1.0" encoding="utf-8"?>
<!-- Generator: Adobe Illustrator 27.0.0, SVG Export Plug-In . SVG Version: 6.00 Build 0)  -->
<svg version="1.1" id="Calque_1" xmlns="http://www.w3.org/2000/svg" xmlns:xlink="http://www.w3.org/1999/xlink" x="0px" y="0px"
	 viewBox="0 0 339.4 127.7" style="enable-background:new 0 0 339.4 127.7;" xml:space="preserve">
<style type="text/css">
	.st0{fill:#3B4395;}
	.st1{fill:#00B3BF;}
	.st2{fill:#82878A;}
</style>
<g>
	<path class="st0" d="M93,39.4c-3.9-4-9.1-6.4-14.7-6.7L51.5,54.2c5.7-0.3,11.6,1.7,15.9,6.2c3.8,3.9,5.8,9.1,5.7,14.5
		c-0.1,5.5-2.3,10.5-6.2,14.3c-0.3,0.3-0.4,0.9,0,1.2c0.2,0.2,0.4,0.3,0.7,0.3c0.2,0,0.4-0.1,0.6-0.2l24.4-19.8
		C101.3,62.3,101.5,48.2,93,39.4"/>
	<path class="st1" d="M86.1,19.3c-0.6-0.8-1.8-0.9-2.5-0.3L67.5,32c1-2.6,1.5-5.4,1.4-8.2c-0.1-5.9-2.5-11.5-6.8-15.6
		c-8.5-8.2-21.4-8-31.4,0.5C21.2,16.7,1.7,32,0.5,33c0,0,0,0-0.1,0c-0.4,0.3-0.5,0.9-0.2,1.3c0.3,0.4,0.9,0.5,1.3,0.2c0,0,0,0,0,0
		c0,0,0,0,0,0c8.9-7,26.3-13.1,35.4-4.2c6.7,6.4,7.7,15.9,3.1,23.7L18.6,71.2c-0.8,0.6-0.9,1.8-0.3,2.5c0.4,0.4,0.9,0.7,1.4,0.7
		c0.4,0,0.8-0.1,1.1-0.4l65-52.1C86.6,21.3,86.7,20.1,86.1,19.3"/>
	<path class="st2" d="M119.8,94.3l1.2-2.6h2.3l-1.8,2.6H119.8z M116.7,107.3V95.4h8v2.1h-5.5v2.8h5.1v2.1h-5.1v2.8h5.5v2.1H116.7z"
		/>
	<path class="st2" d="M137.2,99.6h-2.5c0-0.3-0.1-0.6-0.3-0.9c-0.1-0.3-0.3-0.5-0.6-0.7c-0.2-0.2-0.5-0.3-0.8-0.4
		c-0.3-0.1-0.6-0.1-0.9-0.1c-0.6,0-1.1,0.2-1.6,0.5c-0.5,0.3-0.8,0.7-1.1,1.3c-0.3,0.6-0.4,1.3-0.4,2.1c0,0.8,0.1,1.6,0.4,2.1
		c0.3,0.6,0.6,1,1.1,1.3c0.5,0.3,1,0.4,1.6,0.4c0.3,0,0.6,0,0.9-0.1c0.3-0.1,0.5-0.2,0.8-0.4c0.2-0.2,0.4-0.4,0.6-0.6
		c0.1-0.2,0.3-0.5,0.3-0.8l2.5,0c-0.1,0.5-0.2,1.1-0.5,1.6c-0.3,0.5-0.6,1-1,1.4c-0.4,0.4-1,0.7-1.6,0.9c-0.6,0.2-1.3,0.3-2,0.3
		c-1.1,0-2-0.2-2.8-0.7c-0.8-0.5-1.5-1.2-2-2.1c-0.5-0.9-0.7-2-0.7-3.3c0-1.3,0.2-2.4,0.7-3.3c0.5-0.9,1.1-1.6,2-2.1
		c0.8-0.5,1.8-0.7,2.8-0.7c0.7,0,1.3,0.1,1.9,0.3c0.6,0.2,1.1,0.5,1.6,0.8c0.5,0.4,0.8,0.8,1.1,1.4C137,98.3,137.2,98.9,137.2,99.6"
		/>
	<path class="st2" d="M147.7,101.4c0-0.8-0.1-1.5-0.4-2.1c-0.2-0.6-0.6-1-1.1-1.3c-0.5-0.3-1-0.4-1.6-0.4c-0.6,0-1.1,0.1-1.6,0.4
		c-0.5,0.3-0.8,0.7-1.1,1.3c-0.2,0.6-0.4,1.3-0.4,2.1c0,0.8,0.1,1.5,0.4,2.1c0.2,0.6,0.6,1,1.1,1.3c0.5,0.3,1,0.4,1.6,0.4
		c0.6,0,1.1-0.1,1.6-0.4c0.5-0.3,0.8-0.7,1.1-1.3C147.6,102.9,147.7,102.2,147.7,101.4 M150.3,101.4c0,1.3-0.2,2.4-0.7,3.3
		c-0.5,0.9-1.2,1.6-2,2.1c-0.8,0.5-1.8,0.7-2.8,0.7c-1.1,0-2-0.2-2.8-0.7c-0.8-0.5-1.5-1.2-2-2.1c-0.5-0.9-0.7-2-0.7-3.3
		c0-1.3,0.2-2.4,0.7-3.3c0.5-0.9,1.2-1.6,2-2.1c0.8-0.5,1.8-0.7,2.8-0.7c1,0,2,0.2,2.8,0.7c0.8,0.5,1.5,1.2,2,2.1
		C150,99,150.3,100.1,150.3,101.4"/>
	<polygon class="st2" points="152.5,107.3 152.5,95.4 155,95.4 155,105.2 160.1,105.2 160.1,107.3 	"/>
	<polygon class="st2" points="162,107.3 162,95.4 170,95.4 170,97.5 164.5,97.5 164.5,100.3 169.6,100.3 169.6,102.4 164.5,102.4 
		164.5,105.2 170,105.2 170,107.3 	"/>
	<path class="st2" d="M178.6,105.2h1.6c0.7,0,1.4-0.1,1.9-0.4c0.5-0.3,0.9-0.7,1.1-1.2c0.3-0.6,0.4-1.3,0.4-2.2
		c0-0.9-0.1-1.6-0.4-2.2c-0.3-0.6-0.6-1-1.1-1.2c-0.5-0.3-1.1-0.4-1.9-0.4h-1.6V105.2z M180.3,107.3h-4.2V95.4h4.2
		c1.2,0,2.2,0.2,3.1,0.7c0.9,0.5,1.5,1.2,2,2c0.5,0.9,0.7,1.9,0.7,3.2c0,1.2-0.2,2.3-0.7,3.2c-0.5,0.9-1.1,1.6-2,2
		C182.6,107.1,181.5,107.3,180.3,107.3"/>
	<polygon class="st2" points="188.4,107.3 188.4,95.4 196.4,95.4 196.4,97.5 190.9,97.5 190.9,100.3 196,100.3 196,102.4 
		190.9,102.4 190.9,105.2 196.4,105.2 196.4,107.3 	"/>
	<polygon class="st2" points="202.5,107.3 202.5,95.4 205,95.4 205,105.2 210.1,105.2 210.1,107.3 	"/>
	<path class="st2" d="M212.2,95.4v1.3c0,0.4-0.1,0.7-0.2,1.1c-0.1,0.4-0.3,0.7-0.5,1c-0.2,0.3-0.5,0.6-0.7,0.8l-1.1-0.6
		c0.2-0.3,0.4-0.6,0.5-1c0.1-0.4,0.2-0.8,0.2-1.3v-1.3H212.2z"/>
	<polygon class="st2" points="214.6,107.3 214.6,95.4 222.6,95.4 222.6,97.5 217.2,97.5 217.2,100.3 222.2,100.3 222.2,102.4 
		217.2,102.4 217.2,105.2 222.7,105.2 222.7,107.3 	"/>
	<polygon class="st2" points="227.6,95.4 230,99.5 230.1,99.5 232.5,95.4 235.3,95.4 231.7,101.4 235.4,107.3 232.5,107.3 
		230.1,103.3 230,103.3 227.5,107.3 224.7,107.3 228.4,101.4 224.7,95.4 	"/>
	<path class="st2" d="M237.3,107.3V95.4h4.7c0.9,0,1.7,0.2,2.3,0.5c0.6,0.3,1.1,0.8,1.5,1.4c0.3,0.6,0.5,1.3,0.5,2.1
		c0,0.8-0.2,1.5-0.5,2.1c-0.3,0.6-0.8,1.1-1.5,1.4c-0.6,0.3-1.4,0.5-2.3,0.5h-3v-2h2.6c0.5,0,0.9-0.1,1.2-0.3
		c0.3-0.2,0.5-0.4,0.7-0.7c0.2-0.3,0.2-0.6,0.2-1c0-0.4-0.1-0.7-0.2-1c-0.2-0.3-0.4-0.5-0.7-0.7c-0.3-0.2-0.7-0.2-1.2-0.2h-1.7v9.8
		H237.3z"/>
	<polygon class="st2" points="248,107.3 248,95.4 256,95.4 256,97.5 250.5,97.5 250.5,100.3 255.6,100.3 255.6,102.4 250.5,102.4 
		250.5,105.2 256.1,105.2 256.1,107.3 	"/>
	<path class="st2" d="M264.6,101.9l3,5.4h-2.8l-2.9-5.4H264.6z M258.2,107.3V95.4h4.7c0.9,0,1.7,0.2,2.3,0.5
		c0.6,0.3,1.1,0.8,1.5,1.4c0.3,0.6,0.5,1.3,0.5,2c0,0.8-0.2,1.5-0.5,2c-0.3,0.6-0.8,1-1.5,1.3c-0.6,0.3-1.4,0.5-2.3,0.5h-3.1v-2h2.7
		c0.5,0,0.9-0.1,1.2-0.2c0.3-0.1,0.6-0.3,0.7-0.6c0.2-0.3,0.2-0.6,0.2-1c0-0.4-0.1-0.7-0.2-1c-0.2-0.3-0.4-0.5-0.7-0.6
		c-0.3-0.1-0.7-0.2-1.2-0.2h-1.7v9.8H258.2z"/>
	<polygon class="st2" points="268.6,97.5 268.6,95.4 278.4,95.4 278.4,97.5 274.7,97.5 274.7,107.3 272.3,107.3 272.3,97.5 	"/>
	<rect x="280.2" y="95.4" class="st2" width="2.5" height="11.9"/>
	<path class="st2" d="M291.6,98.9c0-0.5-0.2-0.8-0.6-1.1c-0.4-0.3-0.8-0.4-1.4-0.4c-0.4,0-0.8,0.1-1,0.2c-0.3,0.1-0.5,0.3-0.6,0.5
		c-0.2,0.2-0.2,0.4-0.2,0.7c0,0.2,0,0.4,0.1,0.6c0.1,0.2,0.2,0.3,0.4,0.4c0.2,0.1,0.4,0.2,0.6,0.3c0.2,0.1,0.5,0.2,0.7,0.2l1.1,0.3
		c0.5,0.1,1,0.3,1.4,0.5c0.4,0.2,0.8,0.4,1.1,0.7c0.3,0.3,0.6,0.6,0.7,1c0.2,0.4,0.3,0.8,0.3,1.3c0,0.7-0.2,1.4-0.6,1.9
		c-0.4,0.5-0.9,0.9-1.6,1.2c-0.7,0.3-1.5,0.4-2.5,0.4c-1,0-1.8-0.1-2.5-0.4c-0.7-0.3-1.3-0.7-1.7-1.3c-0.4-0.6-0.6-1.3-0.6-2.1h2.4
		c0,0.4,0.1,0.7,0.3,1c0.2,0.3,0.5,0.5,0.8,0.6c0.3,0.1,0.7,0.2,1.2,0.2c0.4,0,0.8-0.1,1.1-0.2c0.3-0.1,0.6-0.3,0.7-0.5
		c0.2-0.2,0.3-0.5,0.3-0.8c0-0.3-0.1-0.5-0.2-0.7c-0.2-0.2-0.4-0.3-0.7-0.5c-0.3-0.1-0.7-0.2-1.1-0.3l-1.3-0.3
		c-1-0.2-1.8-0.6-2.4-1.1c-0.6-0.5-0.9-1.2-0.9-2.1c0-0.7,0.2-1.3,0.6-1.9c0.4-0.5,0.9-1,1.6-1.3c0.7-0.3,1.5-0.5,2.3-0.5
		c0.9,0,1.7,0.2,2.3,0.5c0.7,0.3,1.2,0.7,1.5,1.3c0.4,0.5,0.6,1.2,0.6,1.9H291.6z"/>
	<polygon class="st2" points="296.3,107.3 296.3,95.4 304.3,95.4 304.3,97.5 298.8,97.5 298.8,100.3 303.8,100.3 303.8,102.4 
		298.8,102.4 298.8,105.2 304.3,105.2 304.3,107.3 	"/>
	<path class="st2" d="M127.1,120h-2.5c0-0.3-0.1-0.6-0.3-0.9c-0.1-0.3-0.3-0.5-0.6-0.7c-0.2-0.2-0.5-0.3-0.8-0.4
		c-0.3-0.1-0.6-0.1-0.9-0.1c-0.6,0-1.1,0.2-1.6,0.5c-0.5,0.3-0.8,0.7-1.1,1.3c-0.3,0.6-0.4,1.3-0.4,2.1c0,0.8,0.1,1.6,0.4,2.1
		c0.3,0.6,0.6,1,1.1,1.3c0.5,0.3,1,0.4,1.6,0.4c0.3,0,0.6,0,0.9-0.1c0.3-0.1,0.5-0.2,0.8-0.4c0.2-0.2,0.4-0.4,0.6-0.6
		c0.1-0.2,0.3-0.5,0.3-0.8l2.5,0c-0.1,0.5-0.2,1.1-0.5,1.6c-0.3,0.5-0.6,1-1,1.4c-0.4,0.4-1,0.7-1.6,0.9c-0.6,0.2-1.3,0.3-2,0.3
		c-1.1,0-2-0.2-2.8-0.7c-0.8-0.5-1.5-1.2-2-2.1c-0.5-0.9-0.7-2-0.7-3.3c0-1.3,0.2-2.4,0.7-3.3c0.5-0.9,1.1-1.6,2-2.1
		c0.8-0.5,1.8-0.7,2.8-0.7c0.7,0,1.3,0.1,1.9,0.3c0.6,0.2,1.1,0.5,1.6,0.8c0.5,0.4,0.8,0.8,1.1,1.4
		C126.9,118.7,127.1,119.3,127.1,120"/>
	<path class="st2" d="M137.6,121.8c0-0.8-0.1-1.5-0.4-2.1c-0.2-0.6-0.6-1-1.1-1.3c-0.5-0.3-1-0.4-1.6-0.4c-0.6,0-1.1,0.1-1.6,0.4
		c-0.5,0.3-0.8,0.7-1.1,1.3c-0.2,0.6-0.4,1.3-0.4,2.1c0,0.8,0.1,1.5,0.4,2.1c0.2,0.6,0.6,1,1.1,1.3c0.5,0.3,1,0.4,1.6,0.4
		c0.6,0,1.1-0.1,1.6-0.4c0.5-0.3,0.8-0.7,1.1-1.3C137.5,123.3,137.6,122.6,137.6,121.8 M140.2,121.8c0,1.3-0.2,2.4-0.7,3.3
		c-0.5,0.9-1.2,1.6-2,2.1c-0.8,0.5-1.8,0.7-2.8,0.7c-1.1,0-2-0.2-2.8-0.7c-0.8-0.5-1.5-1.2-2-2.1c-0.5-0.9-0.7-2-0.7-3.3
		c0-1.3,0.2-2.4,0.7-3.3c0.5-0.9,1.2-1.6,2-2.1c0.8-0.5,1.8-0.7,2.8-0.7c1,0,2,0.2,2.8,0.7c0.8,0.5,1.5,1.2,2,2.1
		C139.9,119.4,140.2,120.5,140.2,121.8"/>
	<polygon class="st2" points="142.4,115.8 145.5,115.8 148.8,123.8 148.9,123.8 152.2,115.8 155.3,115.8 155.3,127.7 152.9,127.7 
		152.9,120 152.8,120 149.7,127.7 148,127.7 145,120 144.9,120 144.9,127.7 142.4,127.7 	"/>
	<path class="st2" d="M157.8,127.7v-11.9h4.7c0.9,0,1.7,0.2,2.3,0.5c0.6,0.3,1.1,0.8,1.5,1.4c0.3,0.6,0.5,1.3,0.5,2.1
		c0,0.8-0.2,1.5-0.5,2.1c-0.3,0.6-0.8,1.1-1.5,1.4c-0.6,0.3-1.4,0.5-2.3,0.5h-3v-2h2.6c0.5,0,0.9-0.1,1.2-0.3
		c0.3-0.2,0.6-0.4,0.7-0.7c0.2-0.3,0.2-0.6,0.2-1c0-0.4-0.1-0.7-0.2-1c-0.2-0.3-0.4-0.5-0.7-0.7c-0.3-0.2-0.7-0.2-1.2-0.2h-1.7v9.8
		H157.8z"/>
	<polygon class="st2" points="168.1,117.9 168.1,115.8 177.9,115.8 177.9,117.9 174.3,117.9 174.3,127.7 171.8,127.7 171.8,117.9 	
		"/>
	<path class="st2" d="M180.3,123h6.4v2h-6.4V123z M180.5,127.7h-2.7l4.1-11.9h3.2l4.1,11.9h-2.7l-3-9.2h-0.1L180.5,127.7z"/>
	<path class="st2" d="M193.6,125.7h2c0.7,0,1.2-0.1,1.5-0.4c0.3-0.3,0.5-0.6,0.5-1.1c0-0.3-0.1-0.6-0.2-0.9
		c-0.2-0.2-0.4-0.4-0.7-0.6c-0.3-0.1-0.6-0.2-1-0.2h-2.1V125.7z M193.6,120.8h1.9c0.3,0,0.6-0.1,0.9-0.2c0.3-0.1,0.5-0.3,0.6-0.5
		c0.2-0.2,0.2-0.5,0.2-0.8c0-0.4-0.2-0.8-0.5-1c-0.3-0.3-0.7-0.4-1.3-0.4h-1.9V120.8z M191,127.7v-11.9h4.8c0.9,0,1.6,0.1,2.2,0.4
		c0.6,0.3,1,0.6,1.3,1.1c0.3,0.5,0.4,1,0.4,1.6c0,0.5-0.1,0.9-0.3,1.2c-0.2,0.3-0.4,0.6-0.8,0.9c-0.3,0.2-0.7,0.4-1.1,0.5v0.1
		c0.5,0,0.9,0.1,1.3,0.4c0.4,0.2,0.7,0.6,1,1c0.2,0.4,0.4,0.9,0.4,1.5c0,0.6-0.2,1.2-0.5,1.7c-0.3,0.5-0.8,0.9-1.4,1.2
		c-0.6,0.3-1.4,0.4-2.2,0.4H191z"/>
	<polygon class="st2" points="202.3,127.7 202.3,115.8 204.8,115.8 204.8,125.6 209.9,125.6 209.9,127.7 	"/>
	<polygon class="st2" points="211.8,127.7 211.8,115.8 219.8,115.8 219.8,117.9 214.3,117.9 214.3,120.7 219.3,120.7 219.3,122.8 
		214.3,122.8 214.3,125.6 219.8,125.6 219.8,127.7 	"/>
	<polygon class="st2" points="225.9,127.7 225.9,115.8 233.9,115.8 233.9,117.9 228.4,117.9 228.4,120.7 233.5,120.7 233.5,122.8 
		228.4,122.8 228.4,125.6 233.9,125.6 233.9,127.7 	"/>
	<polygon class="st2" points="235.8,117.9 235.8,115.8 245.5,115.8 245.5,117.9 241.9,117.9 241.9,127.7 239.4,127.7 239.4,117.9 	
		"/>
	<path class="st2" d="M253.8,125.6h1.6c0.7,0,1.4-0.1,1.9-0.4c0.5-0.3,0.9-0.7,1.1-1.2c0.3-0.6,0.4-1.3,0.4-2.2
		c0-0.9-0.1-1.6-0.4-2.2c-0.3-0.6-0.6-1-1.1-1.2c-0.5-0.3-1.1-0.4-1.9-0.4h-1.6V125.6z M255.5,127.7h-4.2v-11.9h4.2
		c1.2,0,2.2,0.2,3.1,0.7c0.9,0.5,1.5,1.2,2,2c0.5,0.9,0.7,1.9,0.7,3.2c0,1.2-0.2,2.3-0.7,3.2c-0.5,0.9-1.1,1.6-2,2
		C257.7,127.5,256.7,127.7,255.5,127.7"/>
	<polygon class="st2" points="263.5,127.7 263.5,115.8 271.5,115.8 271.5,117.9 266,117.9 266,120.7 271.1,120.7 271.1,122.8 
		266,122.8 266,125.6 271.5,125.6 271.5,127.7 	"/>
	<polygon class="st2" points="277.6,127.7 277.6,115.8 280.1,115.8 280.1,125.6 285.2,125.6 285.2,127.7 	"/>
	<path class="st2" d="M287.3,115.8v1.3c0,0.4-0.1,0.7-0.2,1.1c-0.1,0.4-0.3,0.7-0.5,1c-0.2,0.3-0.5,0.6-0.7,0.8l-1.1-0.6
		c0.2-0.3,0.4-0.6,0.5-1c0.1-0.4,0.2-0.8,0.2-1.3v-1.3H287.3z"/>
	<path class="st2" d="M290.5,123h6.4v2h-6.4V123z M290.6,127.7h-2.7l4.1-11.9h3.2l4.1,11.9h-2.7l-3-9.2h-0.1L290.6,127.7z"/>
	<path class="st2" d="M308,115.8h2.5v7.7c0,0.9-0.2,1.6-0.6,2.3c-0.4,0.6-1,1.2-1.7,1.5c-0.7,0.4-1.6,0.5-2.6,0.5
		c-1,0-1.8-0.2-2.6-0.5c-0.7-0.4-1.3-0.9-1.7-1.5c-0.4-0.7-0.6-1.4-0.6-2.3v-7.7h2.5v7.5c0,0.5,0.1,0.9,0.3,1.2
		c0.2,0.4,0.5,0.6,0.8,0.8c0.4,0.2,0.8,0.3,1.3,0.3c0.5,0,0.9-0.1,1.3-0.3c0.4-0.2,0.6-0.5,0.8-0.8c0.2-0.4,0.3-0.8,0.3-1.2V115.8z"
		/>
	<path class="st2" d="M315.5,125.6h1.6c0.7,0,1.4-0.1,1.9-0.4c0.5-0.3,0.9-0.7,1.1-1.2c0.3-0.6,0.4-1.3,0.4-2.2
		c0-0.9-0.1-1.6-0.4-2.2c-0.3-0.6-0.6-1-1.1-1.2c-0.5-0.3-1.1-0.4-1.9-0.4h-1.6V125.6z M317.2,127.7H313v-11.9h4.2
		c1.2,0,2.2,0.2,3.1,0.7c0.9,0.5,1.5,1.2,2,2c0.5,0.9,0.7,1.9,0.7,3.2c0,1.2-0.2,2.3-0.7,3.2c-0.5,0.9-1.1,1.6-2,2
		C319.5,127.5,318.4,127.7,317.2,127.7"/>
	<rect x="325.3" y="115.8" class="st2" width="2.5" height="11.9"/>
	<polygon class="st2" points="329.7,117.9 329.7,115.8 339.4,115.8 339.4,117.9 335.8,117.9 335.8,127.7 333.3,127.7 333.3,117.9 	
		"/>
	<polygon class="st1" points="139.8,80.4 116.6,80.4 116.6,43.8 139.7,43.8 139.7,51.5 124.7,51.5 124.7,58.5 138.3,58.5 
		138.3,65.7 124.7,65.7 124.7,72.7 139.8,72.7 	"/>
	<polygon class="st1" points="177.5,80.4 168.9,80.4 153.8,56.4 153.8,80.4 145.7,80.4 145.7,43.8 155.6,43.8 169.3,66.1 
		169.3,43.8 177.5,43.8 	"/>
	<path class="st1" d="M193.9,53.9c-2.1,1.9-3.2,4.7-3.2,8.2c0,3.6,1.1,6.3,3.2,8.2c2.1,1.9,4.6,2.8,7.4,2.8c2.8,0,5.3-0.9,7.4-2.8
		c2.1-1.9,3.1-4.6,3.1-8.2c0-3.6-1-6.3-3.1-8.2c-2.1-1.9-4.6-2.9-7.4-2.9C198.5,51,196,52,193.9,53.9 M182.3,62.1
		c0-5.7,1.8-10.3,5.5-13.8c3.7-3.5,8.2-5.3,13.5-5.3c5.3,0,9.8,1.8,13.5,5.3c3.7,3.5,5.5,8.1,5.5,13.8c0,5.6-1.8,10.2-5.5,13.7
		c-3.7,3.5-8.2,5.3-13.5,5.3c-5.3,0-9.8-1.8-13.5-5.3C184.1,72.4,182.3,67.8,182.3,62.1"/>
	<polygon class="st1" points="248.2,80.4 225,80.4 225,43.8 248.1,43.8 248.1,51.5 233.1,51.5 233.1,58.5 246.8,58.5 246.8,65.7 
		233.1,65.7 233.1,72.7 248.2,72.7 	"/>
	<path class="st1" d="M279.2,52.8l-7.3,2.1c-0.2-1.1-0.7-2.2-1.7-3.1c-1-1-2.4-1.4-4.4-1.4c-1.5,0-2.7,0.4-3.6,1.2
		c-0.9,0.8-1.4,1.7-1.4,2.8c0,1.9,1.2,3.1,3.6,3.5l4.9,0.9c3.4,0.6,6,1.9,7.8,3.9c1.8,2,2.8,4.4,2.8,7c0,3.1-1.2,5.8-3.7,8.1
		c-2.4,2.3-5.7,3.5-9.9,3.5c-4.6,0-8.2-1.2-10.7-3.6c-2.5-2.4-3.9-5.1-4.3-8.1l7.5-1.8c0.2,1.8,0.9,3.3,2.1,4.5
		c1.3,1.2,3.1,1.8,5.4,1.8c1.6,0,2.8-0.4,3.8-1.1c0.9-0.7,1.4-1.6,1.4-2.8c0-0.9-0.3-1.7-1-2.3c-0.7-0.6-1.7-1.1-2.9-1.3l-5-0.9
		c-3.1-0.6-5.5-1.8-7.3-3.8c-1.8-1.9-2.7-4.2-2.7-7c0-3.4,1.3-6.2,3.9-8.4c2.6-2.2,5.7-3.4,9.2-3.4c2.2,0,4.1,0.3,5.8,0.9
		c1.7,0.6,3.1,1.4,4.1,2.4c1,1,1.8,2,2.3,3.1C278.6,50.5,279,51.6,279.2,52.8"/>
</g>
</svg>
