<?xml version="1.0" encoding="utf-8"?>
<!-- Generator: Adobe Illustrator 27.0.0, SVG Export Plug-In . SVG Version: 6.00 Build 0)  -->
<svg version="1.1" id="Calque_1" xmlns="http://www.w3.org/2000/svg" xmlns:xlink="http://www.w3.org/1999/xlink" x="0px" y="0px"
	 viewBox="0 0 100 89.1" style="enable-background:new 0 0 100 89.1;" xml:space="preserve">
<style type="text/css">
	.st0{opacity:0.11;}
	.st1{fill:#FFFFFF;}
</style>
<g class="st0">
	<path class="st1" d="M93.7,37.5c-3.9-4-9.2-6.4-14.8-6.8l-27,21.7c5.7-0.3,11.7,1.7,16,6.2c3.8,3.9,5.8,9.2,5.7,14.6
		c-0.1,5.5-2.3,10.6-6.2,14.4c-0.3,0.3-0.4,0.9,0,1.2c0.2,0.2,0.4,0.3,0.7,0.3c0.2,0,0.4-0.1,0.6-0.2l24.6-20
		C102.1,60.6,102.3,46.4,93.7,37.5z"/>
	<path class="st1" d="M86.7,17.2c-0.6-0.8-1.8-0.9-2.5-0.3L68,30c1-2.6,1.5-5.4,1.4-8.3c-0.1-5.9-2.5-11.6-6.9-15.7
		C54-2.2,41-2,30.9,6.6C21.3,14.6,1.7,30,0.5,31.1c0,0,0,0-0.1,0C0,31.4-0.1,32,0.2,32.4c0.3,0.4,0.9,0.5,1.3,0.2
		c9-7.1,26.5-13.2,35.7-4.2c6.8,6.4,7.8,16,3.1,23.9L18.7,69.6c-0.8,0.6-0.9,1.8-0.3,2.5c0.4,0.4,0.9,0.7,1.4,0.7
		c0.4,0,0.8-0.1,1.1-0.4l65.5-52.5C87.2,19.3,87.4,18.1,86.7,17.2z"/>
</g>
</svg>
